<?xml version="1.0" encoding="UTF-8"?>
<!DOCTYPE svg PUBLIC "-//W3C//DTD SVG 1.1//EN" "http://www.w3.org/Graphics/SVG/1.1/DTD/svg11.dtd">
<svg xmlns="http://www.w3.org/2000/svg" version="1.1" width="100px" height="100px" style="shape-rendering:geometricPrecision; text-rendering:geometricPrecision; image-rendering:optimizeQuality; fill-rule:evenodd; clip-rule:evenodd" xmlns:xlink="http://www.w3.org/1999/xlink">
<g><path style="opacity:0.874" fill="#713736" d="M 55.5,2.5 C 56.8734,2.34332 58.2068,2.50999 59.5,3C 61.7561,4.86767 64.2561,6.36767 67,7.5C 67.6838,8.78387 67.5171,9.95054 66.5,11C 70.9434,14.2215 73.2768,18.5548 73.5,24C 73.1038,28.2108 72.4371,32.3774 71.5,36.5C 74.3811,45.4138 71.2144,50.4138 62,51.5C 61.3848,53.1161 60.3848,54.4495 59,55.5C 58.5065,57.1341 58.3398,58.8008 58.5,60.5C 61.595,60.6263 63.4283,62.293 64,65.5C 71.5689,70.0552 76.4022,76.5552 78.5,85C 78.6464,87.0342 77.9797,88.7009 76.5,90C 63.144,96.0935 49.144,98.0935 34.5,96C 30.2316,95.4661 26.2316,94.1327 22.5,92C 21.0564,90.874 20.3898,89.374 20.5,87.5C 22.2359,80.7565 26.2359,75.7565 32.5,72.5C 34.4592,68.0401 37.7926,65.2068 42.5,64C 33.2841,63.4535 27.7841,58.6201 26,49.5C 25.4153,44.489 24.7486,39.489 24,34.5C 18.1608,31.6657 17.3275,27.8324 21.5,23C 19.1563,21.8149 18.3229,19.9815 19,17.5C 25.5943,8.00974 34.761,3.34307 46.5,3.5C 49.1316,4.43993 51.7983,4.6066 54.5,4C 55.056,3.61742 55.3893,3.11742 55.5,2.5 Z"/></g>
<g><path style="opacity:1" fill="#f8b990" d="M 48.5,23.5 C 51.3245,23.0807 53.4912,24.0807 55,26.5C 55.8927,30.4428 57.0594,34.2762 58.5,38C 59.5,38.5 60.5,39 61.5,39.5C 65.5422,35.1004 68.5422,35.6004 70.5,41C 70.0639,46.8567 67.0639,49.3567 61.5,48.5C 59.9016,51.6014 57.7349,54.2681 55,56.5C 56.1233,57.7028 56.9567,59.8695 57.5,63C 56.283,65.9265 54.4497,68.4265 52,70.5C 50.872,72.3453 50.372,74.3453 50.5,76.5C 47.4816,76.6646 44.4816,76.498 41.5,76C 45.0961,72.2654 46.4294,67.7654 45.5,62.5C 46.675,62.719 47.675,62.3857 48.5,61.5C 37.9278,64.1248 31.0945,60.1248 28,49.5C 27.3893,44.504 26.8893,39.504 26.5,34.5C 28.5273,34.3379 30.5273,34.5045 32.5,35C 30.6161,35.2163 28.9494,35.883 27.5,37C 28.9733,37.7096 29.6399,38.8762 29.5,40.5C 30.8333,40.5 32.1667,40.5 33.5,40.5C 34.204,38.3222 34.5374,36.3222 34.5,34.5C 31.5,33.8333 28.5,33.1667 25.5,32.5C 27.7908,30.7122 29.9575,28.7122 32,26.5C 34.1672,29.2868 37.0006,30.1201 40.5,29C 43.6207,27.6937 46.2874,25.8603 48.5,23.5 Z"/></g>
<g><path style="opacity:1" fill="#7d4641" d="M 36.5,44.5 C 39.6851,46.2579 43.0184,47.7579 46.5,49C 47.8333,50.3333 47.8333,51.6667 46.5,53C 41.8333,53.6667 37.1667,53.6667 32.5,53C 31.1817,49.4628 32.515,47.6294 36.5,47.5C 36.5,46.5 36.5,45.5 36.5,44.5 Z"/></g>
<g><path style="opacity:1" fill="#644b56" d="M 33.5,49.5 C 37.5546,49.1758 41.5546,49.5091 45.5,50.5C 41.9127,50.3227 38.246,50.656 34.5,51.5C 32.279,51.5613 31.9456,50.8946 33.5,49.5 Z"/></g>
<g><path style="opacity:1" fill="#773f3c" d="M 65.5,39.5 C 67.6569,40.0533 67.4903,41.0533 65,42.5C 64.5304,41.4232 64.6971,40.4232 65.5,39.5 Z"/></g>
<g><path style="opacity:1" fill="#78403c" d="M 45.5,35.5 C 50.4641,34.4573 52.1308,36.124 50.5,40.5C 49.5,40.5 48.5,40.5 47.5,40.5C 47.6567,39.1266 47.49,37.7932 47,36.5C 44.8215,37.8398 44.3215,37.5065 45.5,35.5 Z"/></g>
<g><path style="opacity:1" fill="#733b39" d="M 42.5,33.5 C 46.3751,33.0845 50.0418,33.5845 53.5,35C 49.9854,34.2943 46.4854,34.461 43,35.5C 42.5357,34.9056 42.369,34.2389 42.5,33.5 Z"/></g>
<g><path style="opacity:1" fill="#6b484b" d="M 57.5,4.5 C 59.1042,5.28696 59.7709,6.6203 59.5,8.5C 61.5273,8.33788 63.5273,8.50454 65.5,9C 64.062,9.21893 62.7287,9.71893 61.5,10.5C 71.5295,15.9484 74.1962,23.9484 69.5,34.5C 66.0455,35.4528 62.7122,36.2862 59.5,37C 58.0594,33.2762 56.8927,29.4428 56,25.5C 54.745,23.4062 52.9116,22.4062 50.5,22.5C 46.3074,24.4255 41.9741,26.0922 37.5,27.5C 34.661,27.6632 32.9943,26.3299 32.5,23.5C 30.1086,27.9004 26.4419,30.2338 21.5,30.5C 21.1429,26.336 22.8095,23.1693 26.5,21C 24.5273,20.5045 22.5273,20.3379 20.5,20.5C 22.9664,14.5636 27.2998,10.3969 33.5,8C 41.4556,6.16947 49.4556,6.0028 57.5,7.5C 57.5,6.5 57.5,5.5 57.5,4.5 Z"/></g>
<g><path style="opacity:1" fill="#eb6060" d="M 58.5,63.5 C 60.8445,63.979 62.1778,65.479 62.5,68C 61.3895,71.0551 59.8895,73.8884 58,76.5C 57.0857,74.3359 55.919,72.3359 54.5,70.5C 56.6159,68.6001 57.9493,66.2668 58.5,63.5 Z"/></g>
<g><path style="opacity:1" fill="#e75f5f" d="M 40.5,66.5 C 41.5,66.5 42.5,66.5 43.5,66.5C 43.7852,68.288 43.4519,69.9547 42.5,71.5C 39.7546,70.0247 37.588,70.6913 36,73.5C 36.037,70.284 37.537,67.9506 40.5,66.5 Z"/></g>
<g><path style="opacity:1" fill="#df4a4a" d="M 63.5,68.5 C 69.9993,72.0063 74.3327,77.3396 76.5,84.5C 76.3201,85.5539 75.9867,86.5539 75.5,87.5C 67.2367,92.4732 58.2367,94.8065 48.5,94.5C 48.8946,86.8579 50.5612,79.5246 53.5,72.5C 54.7007,74.9095 56.3674,76.9095 58.5,78.5C 60.6721,75.4892 62.3388,72.1559 63.5,68.5 Z"/></g>
<g><path style="opacity:1" fill="#dc4949" d="M 39.5,71.5 C 40.4778,71.811 41.1445,72.4777 41.5,73.5C 36.8701,79.427 33.8701,86.0936 32.5,93.5C 29.3093,92.9078 26.3093,91.7411 23.5,90C 22.4464,88.6124 22.2797,87.1124 23,85.5C 25.0828,81.3296 28.0828,77.9962 32,75.5C 32.3333,76.5 32.6667,77.5 33,78.5C 35.62,76.5981 37.7867,74.2648 39.5,71.5 Z"/></g>
<g><path style="opacity:1" fill="#f5efea" d="M 40.5,77.5 C 43.4726,78.0841 46.4726,78.7508 49.5,79.5C 48.3411,84.4689 47.3411,89.4689 46.5,94.5C 42.5,94.5 38.5,94.5 34.5,94.5C 35.0801,88.3382 37.0801,82.6716 40.5,77.5 Z"/></g>
</svg>
